<svg xmlns="http://www.w3.org/2000/svg" width="30" height="30" viewBox="0 0 30 30">
  <path fill="#0A1A72" fill-rule="evenodd" d="M14.9890796,7 C11.0951638,7 8,10.0951638 8,13.9890796 C8,15.8861154 8.698908,17.6833073 10.0967239,18.9812793 C10.1965679,19.0811232 14.1903276,22.675507 14.2901716,22.775351 C14.6895476,23.074883 15.2886115,23.074883 15.5881435,22.775351 C15.6879875,22.675507 19.7815913,19.0811232 19.7815913,18.9812793 C21.1794072,17.6833073 21.8783151,15.8861154 21.8783151,13.9890796 C21.9781591,10.0951638 18.8829953,7 14.9890796,7 L14.9890796,7 Z M14.9890796,15.9859594 C13.8907956,15.9859594 12.9921997,15.0873635 12.9921997,13.9890796 C12.9921997,12.8907956 13.8907956,11.9921997 14.9890796,11.9921997 C16.0873635,11.9921997 16.9859594,12.8907956 16.9859594,13.9890796 C16.9859594,15.0873635 16.0873635,15.9859594 14.9890796,15.9859594 L14.9890796,15.9859594 Z"/>
</svg>
